<svg xmlns="http://www.w3.org/2000/svg" width="300" height="300"><path d="M274.2 290.06V171.52c.5-68.83-55.87-124.7-124.2-124.7-68.33 0-124.2 55.87-124.2 124.2v119.04h248.4z" fill="#ffc81f"/><path d="M224.07 174H76.43c-4 0-7.48 3.5-7.48 7.5 0 40.9 36.4 74.3 81.3 74.3s81.3-33.4 81.3-74.3c0-4-3.5-7.5-7.48-7.5z" fill="#493823"/><path d="M120.32 181.5h60.35v66.33c0 13.97-13.47 25.44-29.93 25.44-16.45 0-29.92-11.47-29.92-25.44l-.5-66.34z" fill="#ff5064"/><path d="M120.32 240.35v-10.48c0-13.46 13.47-24.93 29.93-24.93s29.92 10.97 29.92 24.93v10.48-54.37h-59.85v54.37z" fill="#bf404f" fill-opacity=".5"/><path d="M214.1 173.5H86.9c0 .5-.5 1-.5 2v7.5c0 3.48 2.5 5.97 6 5.97H207.6c3.48 0 5.97-2.5 5.97-5.98v-7.5c.5-.5.5-1.5.5-2z" fill="#fff"/><path d="M86.4 181c18.96-2.5 40.9-3.5 63.85-3.5 22.94 0 44.9 1.5 63.84 3.5v-6.5c0-.5 0-1-.5-2H86.9c0 .5-.5 1-.5 2v6.5z" fill="#ecf1f2"/><path d="M211.6 57.3c-5-6.5-11.97-10.48-20.95-11.47l-13.47-1.5c-10.97-1-18.45-10.97-16.96-21.45l.5-6.48h-1c-13.96-1.5-26.93 4-35.4 14.46L117.8 9.4c-12.46 4-22.44 11.98-28.42 22.96-6 10.47-7.5 20.95-3.5 32.92l132.18 14.96c1-8.48-2-16.46-6.48-22.94z" fill="#ffc81f"/><path d="M104.3 104.17h-.74l.36.55c.12-.2.25-.37.38-.55zm26.3 0c.14.17.25.34.37.5l.32-.5h-.7zm38.87 0h-.73c.1.2.23.37.35.55.1-.2.24-.37.37-.55zm26.27 0l.32.45.3-.45h-.62zm-126.2.38c-.54 2.94-.82 5.97-.82 9.08 0 27 21.72 48.7 48.7 48.7 12.52 0 23.87-4.76 32.6-12.33 8.56 7.73 20.08 12.34 32.58 12.34 27 0 48.72-21.72 48.72-48.7 0-3.1-.3-6.13-.84-9.07-4.24 22.6-24 39.6-47.88 39.6-12.5 0-24.02-4.6-32.58-12.33-8.73 7.57-20.08 12.34-32.6 12.34-23.87 0-43.64-17-47.87-39.63z" fill="#343838" fill-opacity=".15"/><path d="M182.6 61.15c-12.52 0-23.87 4.77-32.6 12.34-8.55-7.75-20.07-12.35-32.58-12.35-27 0-48.72 21.72-48.72 48.7 0 27 21.73 48.73 48.72 48.73 12.5 0 23.86-4.78 32.58-12.35 8.56 7.74 20.08 12.35 32.6 12.35 26.98 0 48.7-21.73 48.7-48.72 0-26.83-21.72-48.7-48.7-48.7zm-65.18 65.17c-8.9 0-16.3-7.24-16.3-16.3 0-8.88 7.25-16.3 16.3-16.3s16.3 7.25 16.3 16.3c0 8.9-7.25 16.3-16.3 16.3zm65.17 0c-8.9 0-16.3-7.24-16.3-16.3 0-8.88 7.24-16.3 16.3-16.3 8.88 0 16.28 7.25 16.28 16.3-.16 8.9-7.4 16.3-16.3 16.3z" fill="#1eacff"/></svg>